<?xml version="1.0" encoding="utf-8"?>
<!-- Generator: Adobe Illustrator 25.4.1, SVG Export Plug-In . SVG Version: 6.00 Build 0)  -->
<svg version="1.1" id="Layer_1" xmlns="http://www.w3.org/2000/svg" xmlns:xlink="http://www.w3.org/1999/xlink" x="0px" y="0px"
	 viewBox="0 0 60 60" style="enable-background:new 0 0 60 60;" xml:space="preserve">
<style type="text/css">
	.st0{fill:#FFFFFF;}
</style>
<g>
	<path class="st0" d="M21.5,56.3c-0.4,0-0.7-0.1-1.1-0.3c-0.8-0.5-1.2-1.5-0.9-2.5L24.7,38H9.2c-0.8,0-1.6-0.5-1.9-1.3
		C6.9,36,7.1,35,7.7,34.5L36.2,3.9C36.8,3.2,38,3,38.8,3.5C39.6,4,40,5.1,39.7,6l-5.2,15.6H50c0.8,0,1.6,0.5,1.9,1.3
		c0.3,0.8,0.2,1.7-0.4,2.3L23,55.7C22.6,56.1,22.1,56.3,21.5,56.3z M13.8,33.9h13.7c0.7,0,1.3,0.3,1.7,0.9c0.4,0.5,0.5,1.3,0.3,1.9
		l-3.2,9.5l19.1-20.4H31.7c-0.7,0-1.3-0.3-1.7-0.8c-0.4-0.5-0.5-1.2-0.3-1.9l3.2-9.5L13.8,33.9z"/>
</g>
</svg>
