<svg id="Layer_1" data-name="Layer 1" xmlns="http://www.w3.org/2000/svg" viewBox="0 0 108.18 56.16"><defs><style>.cls-1{fill:#343e48;}.cls-2{fill:#e12726;}.cls-3{fill:#f58220;}.cls-4{fill:#faa21b;}.cls-5{fill:#f05f45;}.cls-6{fill:#231f20;}</style></defs><path class="cls-1" d="M46,34.62,47.11,33a8.7,8.7,0,0,0,5.15,1.9c1.79,0,3.08-.92,3.08-2.36v-.06c0-1.5-1.75-2.07-3.71-2.62-2.33-.66-4.92-1.47-4.92-4.2v-.06c0-2.56,2.13-4.26,5.06-4.26A10.25,10.25,0,0,1,57.13,23l-1,1.67a8.42,8.42,0,0,0-4.4-1.44c-1.76,0-2.88.92-2.88,2.16v.06c0,1.41,1.84,2,3.83,2.56,2.3.69,4.77,1.58,4.77,4.26v.06c0,2.82-2.33,4.46-5.29,4.46A10.26,10.26,0,0,1,46,34.62Z"/><path class="cls-1" d="M58.42,21.64h2.36l3.92,12,4-12h1.84l4,12,3.91-12h2.31l-5.24,15H73.62l-4-11.75-4,11.75h-2Z"/><path class="cls-1" d="M88.72,23.6V20.37A5.21,5.21,0,0,1,90,16.55a4.37,4.37,0,0,1,3.19-1.16,6.71,6.71,0,0,1,2.45.38V17.7a7.45,7.45,0,0,0-2.16-.38c-1.73,0-2.59,1-2.59,3.17V21.7h4.72v1.9H90.94V36.52H88.72Z"/><path class="cls-1" d="M99.4,32.58v-9H97.32v-2H99.4V17.15h2.21v4.49h4.72v2h-4.72v8.69a2.2,2.2,0,0,0,2.51,2.47,4.71,4.71,0,0,0,2.16-.51v1.9a5.64,5.64,0,0,1-2.68.63C101.21,36.78,99.4,35.6,99.4,32.58Z"/><path class="cls-2" d="M23.47,36c0-.23-.14-.14-.41,0-3,2.19-3.7,2.71-7.1,3.15-.76.09,1.48.79,3.5,1.23A9.56,9.56,0,0,1,17.77,45C17.28,45.69,23.56,42.59,23.47,36Z"/><path class="cls-3" d="M15.47,21.76c3.68,3.16,6.93,6,8.77,9.78A13.91,13.91,0,0,1,38,24.78C33.6,21.07,25.1,25.26,15.47,21.76Z"/><path class="cls-4" d="M32.63,16.87C16,12.12,6.55,5.39,1.46.33c.41,3.74,3.33,12.09,8.89,16.18,12,8.82,24.48-.12,30.26,9C41,23.23,40,19,32.63,16.87Z"/><path class="cls-5" d="M25.29,34.36c.05,1.1.42,3.85-.64,6.26,0,0,0,0,0,.07s.14.19.31,0C27,38.35,32,29,36,26.28,31.53,26.46,25.23,32.91,25.29,34.36Z"/><path class="cls-1" d="M83.11,21.64h2.22V36.52H83.11Zm1.13-4.83a1.41,1.41,0,1,0,1.4,1.4A1.4,1.4,0,0,0,84.24,16.81Z"/><path class="cls-6" d="M46.94,41.29h.77l2.53,3.27V41.29h.82V46h-.7l-2.6-3.36V46h-.82Z"/><path class="cls-6" d="M55.5,41.26h.76L58.34,46h-.87L57,44.87H54.75L54.27,46h-.85Zm1.18,2.88-.81-1.89-.81,1.89Z"/><path class="cls-6" d="M59.55,41.29h.92l1.43,3.63,1.41-3.63h.9l-2,4.76h-.73Z"/><path class="cls-6" d="M66.75,41.29h.83V46h-.83Z"/><path class="cls-6" d="M70.59,43.67v0A2.41,2.41,0,0,1,73,41.21a2.56,2.56,0,0,1,1.81.64l-.53.63A1.84,1.84,0,0,0,73,42a1.6,1.6,0,0,0-1.53,1.67h0a1.58,1.58,0,0,0,1.61,1.69A1.91,1.91,0,0,0,74.21,45V44.1H73v-.72h2v2a3,3,0,0,1-2,.74A2.35,2.35,0,0,1,70.59,43.67Z"/><path class="cls-6" d="M79.62,41.26h.76L82.46,46h-.87l-.48-1.14H78.87L78.39,46h-.85Zm1.18,2.88L80,42.25l-.81,1.89Z"/><path class="cls-6" d="M85.51,42.06H84v-.77h3.83v.77H86.35V46h-.84Z"/><path class="cls-6" d="M90.62,41.29h.83V46h-.83Z"/><path class="cls-6" d="M94.36,43.67v0a2.47,2.47,0,0,1,4.94,0h0a2.43,2.43,0,0,1-2.48,2.45A2.4,2.4,0,0,1,94.36,43.67Zm4.07,0v0A1.62,1.62,0,0,0,96.82,42a1.59,1.59,0,0,0-1.59,1.67h0a1.62,1.62,0,0,0,1.61,1.68A1.6,1.6,0,0,0,98.43,43.67Z"/><path class="cls-6" d="M101.79,41.29h.77l2.53,3.27V41.29h.81V46h-.69l-2.61-3.36V46h-.81Z"/></svg>