<svg xmlns="http://www.w3.org/2000/svg" viewBox="0 0 108.18 56.16" xmlns:v="https://vecta.io/nano"><path d="M46 34.62L47.11 33a8.7 8.7 0 0 0 5.15 1.9c1.79 0 3.08-.92 3.08-2.36v-.06c0-1.5-1.75-2.07-3.71-2.62-2.33-.66-4.92-1.47-4.92-4.2v-.06c0-2.56 2.13-4.26 5.06-4.26A10.25 10.25 0 0 1 57.13 23l-1 1.67a8.42 8.42 0 0 0-4.4-1.44c-1.76 0-2.88.92-2.88 2.16v.06c0 1.41 1.84 2 3.83 2.56 2.3.69 4.77 1.58 4.77 4.26v.06c0 2.82-2.33 4.46-5.29 4.46A10.26 10.26 0 0 1 46 34.62zm12.42-12.98h2.36l3.92 12 4-12h1.84l4 12 3.91-12h2.31l-5.24 15h-1.9l-4-11.75-4 11.75h-2zm30.3 1.96v-3.23A5.21 5.21 0 0 1 90 16.55a4.37 4.37 0 0 1 3.19-1.16 6.71 6.71 0 0 1 2.45.38v1.93a7.45 7.45 0 0 0-2.16-.38c-1.73 0-2.59 1-2.59 3.17v1.21h4.72v1.9h-4.67v12.92h-2.22zm10.68 8.98v-9h-2.08v-2h2.08v-4.43h2.21v4.49h4.72v2h-4.72v8.69a2.2 2.2 0 0 0 2.51 2.47 4.71 4.71 0 0 0 2.16-.51v1.9a5.64 5.64 0 0 1-2.68.63c-2.39-.04-4.2-1.22-4.2-4.24z" fill="#343e48"/><path d="M23.47 36c0-.23-.14-.14-.41 0-3 2.19-3.7 2.71-7.1 3.15-.76.09 1.48.79 3.5 1.23A9.56 9.56 0 0 1 17.77 45c-.49.69 5.79-2.41 5.7-9z" fill="#e12726"/><path d="M15.47 21.76c3.68 3.16 6.93 6 8.77 9.78A13.91 13.91 0 0 1 38 24.78c-4.4-3.71-12.9.48-22.53-3.02z" fill="#f58220"/><path d="M32.63,16.87C16,12.12,6.55,5.39,1.46.33c.41,3.74,3.33,12.09,8.89,16.18,12,8.82,24.48-.12,30.26,9C41,23.23,40,19,32.63,16.87Z" fill="#faa21b"/><path d="M25.29 34.36c.05 1.1.42 3.85-.64 6.26v.07c0 .07.14.19.31 0C27 38.35 32 29 36 26.28c-4.47.18-10.77 6.63-10.71 8.08z" fill="#f05f45"/><path d="M83.11 21.64h2.22v14.88h-2.22zm1.13-4.83a1.41 1.41 0 1 0 1.4 1.4 1.4 1.4 0 0 0-1.4-1.4z" fill="#343e48"/><path d="M46.94 41.29h.77l2.53 3.27v-3.27h.82V46h-.7l-2.6-3.36V46h-.82zm8.56-.03h.76L58.34 46h-.87L57 44.87h-2.25L54.27 46h-.85zm1.18 2.88l-.81-1.89-.81 1.89zm2.87-2.85h.92l1.43 3.63 1.41-3.63h.9l-2 4.76h-.73zm7.2 0h.83V46h-.83zm3.84 2.38h0A2.41 2.41 0 0 1 73 41.21a2.56 2.56 0 0 1 1.81.64l-.53.63A1.84 1.84 0 0 0 73 42a1.6 1.6 0 0 0-1.53 1.67h0a1.58 1.58 0 0 0 1.61 1.69 1.91 1.91 0 0 0 1.13-.36v-.9H73v-.72h2v2a3 3 0 0 1-2 .74 2.35 2.35 0 0 1-2.41-2.45zm9.03-2.41h.76L82.46 46h-.87l-.48-1.14h-2.24L78.39 46h-.85zm1.18 2.88l-.8-1.89-.81 1.89zm4.71-2.08H84v-.77h3.83v.77h-1.48V46h-.84zm5.11-.77h.83V46h-.83zm3.74 2.38h0a2.47 2.47 0 0 1 4.94 0h0a2.43 2.43 0 0 1-2.48 2.45 2.4 2.4 0 0 1-2.46-2.45zm4.07 0h0A1.62 1.62 0 0 0 96.82 42a1.59 1.59 0 0 0-1.59 1.67h0a1.62 1.62 0 0 0 1.61 1.68 1.6 1.6 0 0 0 1.59-1.68zm3.36-2.38h.77l2.53 3.27v-3.27h.81V46h-.69l-2.61-3.36V46h-.81z" fill="#231f20"/></svg>