<svg xmlns="http://www.w3.org/2000/svg" width="32" height="32" fill="#4e4e50" xmlns:v="https://vecta.io/nano"><path d="M18.023 13.975h5.789a8.07 8.07 0 0 0-5.789-5.789v5.789zm0 4.05v5.787c2.836-.73 5.055-2.953 5.789-5.787h-5.789zm-4.05-4.05V8.186c-2.836.732-5.059 2.953-5.789 5.789h5.789zm0 4.05H8.184a8.06 8.06 0 0 0 5.789 5.787v-5.787zm4.05-13.972a12.13 12.13 0 0 1 9.922 9.922H32A16.11 16.11 0 0 0 18.023 0v4.053zM4.051 13.975C4.91 8.9 8.898 4.912 13.973 4.053V0C6.664.924.922 6.664 0 13.975h4.051zm9.922 13.97c-5.074-.859-9.062-4.844-9.922-9.92H0C.922 25.336 6.664 31.078 13.973 32v-4.055zm13.972-9.92c-.859 5.076-4.848 9.061-9.922 9.92V32A16.11 16.11 0 0 0 32 18.025h-4.055z"/></svg>