<?xml version="1.0" encoding="utf-8"?>
<!-- Generator: Adobe Illustrator 24.0.3, SVG Export Plug-In . SVG Version: 6.00 Build 0)  -->
<svg version="1.1" id="Layer_1" xmlns="http://www.w3.org/2000/svg" xmlns:xlink="http://www.w3.org/1999/xlink" x="0px" y="0px"
	 viewBox="0 0 60 60" style="enable-background:new 0 0 60 60;" xml:space="preserve">
<style type="text/css">
	.st0{fill:#F58320;}
	.st1{fill:#FFFFFF;}
</style>
<path class="st0" d="M50.1,22.9c0,11-19.8,33.8-19.8,33.8S10.4,33.9,10.4,22.9S19.3,3.1,30.3,3.1S50.1,12,50.1,22.9z"/>
<g>
	<g>
		<path class="st1" d="M31,34.3c0-0.1-0.1-0.1-0.3,0c-1.9,1.4-2.4,1.7-4.6,2c-0.5,0.1,0.9,0.5,2.2,0.8c0,0.8-0.4,1.8-1.1,2.9
			C27.1,40.5,31.1,38.5,31,34.3z"/>
	</g>
	<g>
		<path class="st1" d="M25.9,25.2c2.4,2,4.4,3.9,5.6,6.3c3.4-5.4,8.8-4.3,8.8-4.3C37.5,24.8,32.1,27.4,25.9,25.2z"/>
	</g>
	<path class="st1" d="M36.9,22.1c-10.6-3-16.7-7.4-20-10.6c0.3,2.4,2.1,7.7,5.7,10.4c7.7,5.7,15.7-0.1,19.4,5.8
		C42.3,26.1,41.6,23.4,36.9,22.1z"/>
	<path class="st1" d="M32.2,33.3c0,0.7,0.3,2.5-0.4,4c0,0,0,0,0,0c0,0.1,0.1,0.1,0.2,0c1.3-1.5,4.5-7.5,7.1-9.2
		C36.2,28.2,32.2,32.3,32.2,33.3z"/>
</g>
</svg>
