<svg xmlns="http://www.w3.org/2000/svg" viewBox="0 0 38 38" fill="#e6e6e6" xmlns:v="https://vecta.io/nano"><path d="M21.21 32.57a14.15 14.15 0 0 0-.93 2.3v.09h-2.8v-.1c-.64-1.91-1.19-3.57-3.3-4.44s-3.67-.1-5.48.8l-.1.05-2-2v-.1c.86-1.73 1.67-3.36.8-5.48S4.87 21.05 3 20.4h-.1v-2.84h.09c1.92-.64 3.57-1.19 4.45-3.31s.09-3.67-.8-5.48v-.09l2-2h.1c1.81.9 3.37 1.68 5.48.8h0c2.07-.87 2.63-2.52 3.26-4.42v-.1h2.8v.1c.64 1.92 1.19 3.57 3.3 4.44s3.68.1 5.49-.8h.09l2 2v.09c-.9 1.81-1.68 3.37-.81 5.49s2.53 2.66 4.44 3.3h.1v2.81h-.09a15.75 15.75 0 0 0-2.2.87 3.47 3.47 0 0 1 .9 2.31v.18a9.05 9.05 0 0 1 2.12-.9l.2-.06a2.45 2.45 0 0 0 1.67-2.32v-3a2.45 2.45 0 0 0-1.67-2.32l-.2-.07c-1.82-.61-2.46-.87-2.87-1.84s-.12-1.62.73-3.34l.09-.18a2.43 2.43 0 0 0-.46-2.82l-2.18-2.14a2.45 2.45 0 0 0-2.82-.47l-.19.1c-1.71.85-2.36 1.13-3.33.72s-1.23-1.05-1.84-2.87l-.07-.19A2.45 2.45 0 0 0 20.36.38h-3A2.45 2.45 0 0 0 15 2.05l-.07.2c-.61 1.81-.87 2.46-1.84 2.86h0c-1 .39-1.6.11-3.31-.73l-.19-.1a2.45 2.45 0 0 0-2.82.46L4.64 6.89a2.43 2.43 0 0 0-.46 2.82l.09.19c.85 1.72 1.13 2.36.73 3.33s-1.06 1.23-2.87 1.84l-.2.07a2.44 2.44 0 0 0-1.67 2.32v3a2.45 2.45 0 0 0 1.67 2.34l.2.07C4 23.48 4.6 23.74 5 24.7s.13 1.62-.73 3.33l-.09.19a2.45 2.45 0 0 0 .46 2.83l2.13 2.13a2.45 2.45 0 0 0 2.82.46l.19-.09c1.72-.86 2.36-1.13 3.33-.73s1.23 1 1.84 2.87l.07.2a2.45 2.45 0 0 0 2.32 1.67h3a2.45 2.45 0 0 0 2.32-1.67l.06-.19a8.11 8.11 0 0 1 1-2.21h-.16a3.47 3.47 0 0 1-2.35-.92zM18.85 11.9a7.07 7.07 0 1 0 7.06 7.1 7.07 7.07 0 0 0-7.06-7.1zm0 11.53A4.47 4.47 0 1 1 23.31 19a4.46 4.46 0 0 1-4.46 4.43zm17.58 5.29h-5.15v-5.14a1.28 1.28 0 0 0-.38-.92 1.26 1.26 0 0 0-.91-.38 1.3 1.3 0 0 0-1.3 1.3v5.14h-5.15a1.29 1.29 0 0 0-.9 2.23 1.27 1.27 0 0 0 .9.37h5.15v5.15a1.3 1.3 0 0 0 2.59 0v-5.15h5.15a1.3 1.3 0 0 0 0-2.6z"/></svg>