<svg xmlns="http://www.w3.org/2000/svg" viewBox="0 0 56 56" fill="#e6e6e6" xmlns:v="https://vecta.io/nano"><path d="M5.7 7.47A2.54 2.54 0 0 0 7 6.68a2.5 2.5 0 0 0 .6-1.17 2.84 2.84 0 0 0 .05-.36V5.1v-.11a2.5 2.5 0 0 0-.32-1.22A2.54 2.54 0 0 0 2.56 5v.17a1.27 1.27 0 0 0 0 .28 2.56 2.56 0 0 0 .56 1.2 2.58 2.58 0 0 0 1.32.82 2.4 2.4 0 0 0 1.26 0zM4.35 6.4A1.55 1.55 0 0 1 3.5 5a.76.76 0 0 1 0-.15h0a1.36 1.36 0 0 1 .16-.53 1.59 1.59 0 0 1 2.9.09 1.65 1.65 0 0 1 .12.44h0a.76.76 0 0 1 0 .15 1.56 1.56 0 0 1-.36 1 1.51 1.51 0 0 1-.52.42 1.57 1.57 0 0 1-.72.18 1.49 1.49 0 0 1-.73-.2zm40.92 21.97A5.62 5.62 0 0 0 39.64 34v.28.09a6.18 6.18 0 0 0 .07.62 5.61 5.61 0 0 0 4.16 4.46 5.44 5.44 0 0 0 2.69 0 5.59 5.59 0 0 0 2.89-1.74 5.65 5.65 0 0 0 1.31-2.59 5.44 5.44 0 0 0 .1-.8v-.1a1.94 1.94 0 0 0 0-.24 5.66 5.66 0 0 0-5.63-5.63zM48 36.23a3.53 3.53 0 0 1-2.74 1.32 3.5 3.5 0 0 1-1.68-.43A3.57 3.57 0 0 1 41.72 34v-.33-.09a3.72 3.72 0 0 1 .35-1.19 3.55 3.55 0 0 1 6.42.2 3.9 3.9 0 0 1 .25 1v.09a1.87 1.87 0 0 1 0 .34 3.5 3.5 0 0 1-.74 2.21z"/><path d="M55.7 33.62v-.19a10.45 10.45 0 0 0-20.87.08v.19a2.46 2.46 0 0 0 0 .28 11.16 11.16 0 0 0 .37 2.66 18.61 18.61 0 0 0 1.05 3L8 14.1c.76-.22 1.23-.52 1.22-.84 0-.54-1.28-1-3-1.11l.78-.91.91-1.3.47-.74a16 16 0 0 0 .8-1.51 9 9 0 0 0 .55-1.54A5.12 5.12 0 0 0 9.84 5v-.16-.1a4.73 4.73 0 0 0-9.45 0V5a5 5 0 0 0 .13 1.19A10.86 10.86 0 0 0 1 7.62l.79 1.5.51.82.92 1.3.73.93c-1.72.15-3 .61-3 1.14s1.35 1 3.16 1.12l35 35.74c-1.4.54-2.27 1.27-2.27 2.08 0 1.71 3.83 3.12 8.58 3.15s8.68-1.4 8.69-3.07c0-1.39-2.51-2.58-6-3l1.2-1.55 2-2.87 1-1.64A35 35 0 0 0 54.15 40a19.48 19.48 0 0 0 1.22-3.39 10.91 10.91 0 0 0 .34-2.61l-.01-.38zM4.29 11.05l-.67-.9a20 20 0 0 1-1.45-2.34 11.36 11.36 0 0 1-.63-1.47 5.53 5.53 0 0 1-.19-.78A4.54 4.54 0 0 1 1.3 5a3.65 3.65 0 0 1 .13-1A3.8 3.8 0 0 1 8.9 5a4.13 4.13 0 0 1-.05.55 6.53 6.53 0 0 1-.22.87A10.43 10.43 0 0 1 8 7.87a20 20 0 0 1-1.41 2.28l-.69.92-.31.4-.34.41-.14.17-.11-.17-.34-.41zm-.81 2.6c-.48-.11-.78-.27-.79-.45s.7-.5 1.66-.59l.22.26.18.2.25.27.1.11.14-.15.2-.23.17-.18c.06-.08.15-.18.25-.29 1 .07 1.7.3 1.71.57 0 .1-.1.2-.27.28a5.48 5.48 0 0 1-2.16.35 7.12 7.12 0 0 1-1.66-.15zm50.05 21.53a12.93 12.93 0 0 1-.48 1.93 22.7 22.7 0 0 1-1.41 3.25 44.62 44.62 0 0 1-3.13 5l-1.51 2-.69.89-.22.26-.51.62h0l-.31.37-.32-.37h0l-.74-.89-.73-.93-1.48-2-1-1.43a38.52 38.52 0 0 1-2.21-3.73A20.28 20.28 0 0 1 37.4 37a10.77 10.77 0 0 1-.4-1.75 8.11 8.11 0 0 1-.14-1.25 8.38 8.38 0 0 1 16.47-2.22 8.55 8.55 0 0 1 .31 2.22 8.2 8.2 0 0 1-.11 1.18zM50 52.11c0 .82-2 1.47-4.5 1.46s-4.5-.69-4.5-1.51h0c0-.58 1-1.07 2.51-1.3l.56.65.39.44h.05l.72.78.76-.83.12-.14.24-.27.64-.73a7.54 7.54 0 0 1 2 .46c.62.3 1.01.63 1.01.99z"/></svg>