<svg xmlns="http://www.w3.org/2000/svg" viewBox="0 0 38 38" xmlns:v="https://vecta.io/nano"><path d="M34.76.62a1.21 1.21 0 0 0-1.47-.28L4.86 15a1.22 1.22 0 0 0-.65 1 1.2 1.2 0 0 0 .6 1.08L13 21.9 3.13 35.6a1.22 1.22 0 0 0 .06 1.5 1.09 1.09 0 0 0 .26.22 1.21 1.21 0 0 0 1.22.07l28.53-14.8a1.22 1.22 0 0 0 .65-1.05 1.18 1.18 0 0 0-.6-1.07L25 15.66l9.8-13.54a1.2 1.2 0 0 0-.04-1.5zm-12.48 14.7a1.2 1.2 0 0 0 .37 1.76l7.48 4.37-22 11.43 7.69-10.64a1.18 1.18 0 0 0 .21-1 1.2 1.2 0 0 0-.52-.76h-.06l-7.51-4.36 21.94-11.3z" fill="#e6e6e6"/></svg>