<svg id="Layer_1" data-name="Layer 1" xmlns="http://www.w3.org/2000/svg" viewBox="0 0 38 38"><defs><style>.cls-1{fill:#e6e6e6;}</style></defs><path class="cls-1" d="M34.76.62A1.21,1.21,0,0,0,33.29.34L4.86,15a1.22,1.22,0,0,0-.65,1,1.2,1.2,0,0,0,.6,1.08L13,21.9,3.13,35.6a1.22,1.22,0,0,0,.06,1.5,1.09,1.09,0,0,0,.26.22,1.21,1.21,0,0,0,1.22.07L33.2,22.59a1.22,1.22,0,0,0,.65-1.05,1.18,1.18,0,0,0-.6-1.07L25,15.66l9.8-13.54A1.2,1.2,0,0,0,34.76.62ZM22.28,15.32a1.2,1.2,0,0,0,.37,1.76l7.48,4.37-22,11.43,7.69-10.64a1.18,1.18,0,0,0,.21-1,1.2,1.2,0,0,0-.52-.76l-.06,0L7.94,16.12,29.88,4.82Z"/></svg>