<svg xmlns="http://www.w3.org/2000/svg" viewBox="0 0 46 46" fill="#e6e6e6" xmlns:v="https://vecta.io/nano"><path d="M44.16 38.22L32.38 26.45l-.12-.08a16.88 16.88 0 0 0 2.4-8.68A17.09 17.09 0 1 0 26.91 32l11.75 11.72a3.89 3.89 0 0 0 5.5-5.5zM3.06 17.69A14.54 14.54 0 1 1 17.6 32.23 14.55 14.55 0 0 1 3.06 17.69zm39.32 24.25a1.38 1.38 0 0 1-1.94 0L28.92 30.42a16.83 16.83 0 0 0 1.9-2L42.38 40a1.37 1.37 0 0 1 0 1.94zM6.89 12.57c.21 0 .56-.09 1.37-.65v3.85a1.17 1.17 0 0 0 .26.8.94.94 0 0 0 .72.31c.37 0 1-.17 1-1.3V10a1.18 1.18 0 0 0-.24-.8.87.87 0 0 0-1.21-.14 5.1 5.1 0 0 0-.38.5 3.59 3.59 0 0 1-.59.64 3.83 3.83 0 0 1-.88.55 3.4 3.4 0 0 0-.61.34.72.72 0 0 0-.28.62.87.87 0 0 0 .25.6.8.8 0 0 0 .59.26zm9.66-2.97a2.5 2.5 0 0 0-.84-.55 2.86 2.86 0 0 0-1-.19 2.53 2.53 0 0 0-2.46 1.65 5.06 5.06 0 0 0-.27 1.1 11.41 11.41 0 0 0-.11 1.39 7.62 7.62 0 0 0 .13 1.1 4.85 4.85 0 0 0 .24 1 2.94 2.94 0 0 0 1 1.31 2.68 2.68 0 0 0 2.87.12 2.8 2.8 0 0 0 1-1 3.65 3.65 0 0 0 .4-1.15 10 10 0 0 0 .1-1.44 5.9 5.9 0 0 0-.4-2.43 3.15 3.15 0 0 0-.66-.91zm-1 3.21a8.42 8.42 0 0 1-.1 1.48 1.59 1.59 0 0 1-.29.75.62.62 0 0 1-.92 0 1.65 1.65 0 0 1-.29-.74 8.4 8.4 0 0 1-.1-1.46 5.61 5.61 0 0 1 .23-1.91.6.6 0 0 1 .61-.45.57.57 0 0 1 .47.19 1.52 1.52 0 0 1 .29.71 7.84 7.84 0 0 1 .11 1.43zm6.98-3.21a2.56 2.56 0 0 0-.83-.55 2.87 2.87 0 0 0-1-.19 2.56 2.56 0 0 0-2.46 1.65 5.75 5.75 0 0 0-.26 1.1 11.41 11.41 0 0 0-.12 1.39 7.68 7.68 0 0 0 .07 1.11 4.26 4.26 0 0 0 .25 1 2.94 2.94 0 0 0 1 1.31 2.66 2.66 0 0 0 2.86.12 2.8 2.8 0 0 0 1-1 3.42 3.42 0 0 0 .4-1.15 8.71 8.71 0 0 0 .1-1.44 5.9 5.9 0 0 0-.4-2.43 3.15 3.15 0 0 0-.61-.92zm-1 3.21a9.52 9.52 0 0 1-.1 1.48 1.7 1.7 0 0 1-.29.75.62.62 0 0 1-.92 0 1.65 1.65 0 0 1-.3-.74 9.53 9.53 0 0 1-.1-1.46 5.87 5.87 0 0 1 .23-1.91.6.6 0 0 1 .61-.45.57.57 0 0 1 .47.19 1.52 1.52 0 0 1 .3.71 8.87 8.87 0 0 1 .12 1.43zm3.32-.24c.21 0 .56-.09 1.37-.65v3.85a1.12 1.12 0 0 0 .26.8.94.94 0 0 0 .71.31c.37 0 1-.17 1-1.3V10a1.17 1.17 0 0 0-.19-.8.87.87 0 0 0-1.21-.14c-.06.06-.19.23-.39.5a3.53 3.53 0 0 1-.58.64 3.83 3.83 0 0 1-.88.55 2.8 2.8 0 0 0-.61.34.72.72 0 0 0-.28.62.83.83 0 0 0 .25.6.8.8 0 0 0 .55.26zm-14.29 6.27a2.59 2.59 0 0 0-.83-.56 2.87 2.87 0 0 0-1-.18 2.52 2.52 0 0 0-2.46 1.65A4.36 4.36 0 0 0 6 20.84a9.77 9.77 0 0 0-.08 1.38A7.82 7.82 0 0 0 6 23.34a4.18 4.18 0 0 0 .25 1 2.77 2.77 0 0 0 1 1.31 2.66 2.66 0 0 0 2.86.12 2.65 2.65 0 0 0 1-1 3.56 3.56 0 0 0 .4-1.15 8.62 8.62 0 0 0 .1-1.44 5.9 5.9 0 0 0-.4-2.43 3.1 3.1 0 0 0-.65-.91zm-1 3.2a9.52 9.52 0 0 1-.1 1.48 1.63 1.63 0 0 1-.3.76.62.62 0 0 1-.91 0 1.46 1.46 0 0 1-.3-.74 8.33 8.33 0 0 1-.1-1.46 5.84 5.84 0 0 1 .23-1.9.6.6 0 0 1 .61-.46.57.57 0 0 1 .47.19 1.52 1.52 0 0 1 .29.72A7.59 7.59 0 0 1 9.58 22zm5.22-3.75c-.06.07-.19.23-.39.51a3.9 3.9 0 0 1-.58.64 4.07 4.07 0 0 1-.88.54 4 4 0 0 0-.61.34.73.73 0 0 0-.28.62.86.86 0 0 0 .24.6.83.83 0 0 0 .6.26c.21 0 .55-.08 1.36-.65V25a1.17 1.17 0 0 0 .27.81.91.91 0 0 0 .71.3c.37 0 1-.17 1-1.3v-5.63a1.17 1.17 0 0 0-.22-.75.88.88 0 0 0-1.22-.14zm7.75.55a2.59 2.59 0 0 0-.83-.56 2.87 2.87 0 0 0-1-.18 2.52 2.52 0 0 0-2.46 1.65 5.46 5.46 0 0 0-.26 1.09 11.54 11.54 0 0 0-.08 1.38 7.82 7.82 0 0 0 .07 1.12 4.18 4.18 0 0 0 .25 1 2.83 2.83 0 0 0 1 1.31 2.66 2.66 0 0 0 2.86.12 2.65 2.65 0 0 0 1-1 3.34 3.34 0 0 0 .4-1.15 8.62 8.62 0 0 0 .1-1.44 5.9 5.9 0 0 0-.4-2.43 3.1 3.1 0 0 0-.65-.91zm-1 3.2a9.52 9.52 0 0 1-.1 1.48 1.75 1.75 0 0 1-.29.76.63.63 0 0 1-.92 0 1.56 1.56 0 0 1-.3-.74 9.43 9.43 0 0 1-.1-1.46 5.84 5.84 0 0 1 .23-1.9.6.6 0 0 1 .61-.46.57.57 0 0 1 .47.19 1.51 1.51 0 0 1 .3.72 8.73 8.73 0 0 1 .12 1.37zm6.65-2.86a1.17 1.17 0 0 0-.22-.75.88.88 0 0 0-1.21-.14c-.06.07-.19.23-.39.51a3.9 3.9 0 0 1-.58.64 3.84 3.84 0 0 1-.88.54 4 4 0 0 0-.61.34.73.73 0 0 0-.28.62.83.83 0 0 0 .25.6.8.8 0 0 0 .59.26c.21 0 .56-.08 1.37-.65V25a1.16 1.16 0 0 0 .26.81.93.93 0 0 0 .71.3c.37 0 1-.17 1-1.3z"/></svg>