<svg xmlns="http://www.w3.org/2000/svg" viewBox="0 0 38 38" fill="#e6e6e6" xmlns:v="https://vecta.io/nano"><path d="M19 11.94A7.07 7.07 0 1 0 26.06 19 7.07 7.07 0 0 0 19 11.94zm0 11.53A4.47 4.47 0 1 1 23.46 19 4.47 4.47 0 0 1 19 23.47zm16.92-8.3l-.2-.07c-1.82-.61-2.47-.87-2.87-1.84s-.13-1.61.73-3.34l.09-.18a2.45 2.45 0 0 0-.46-2.82l-2.13-2.13a2.46 2.46 0 0 0-2.83-.46l-.18.09c-1.72.85-2.37 1.13-3.34.73S23.5 4.1 22.89 2.28l-.06-.2A2.45 2.45 0 0 0 20.5.41h-3a2.43 2.43 0 0 0-2.32 1.67l-.07.2c-.61 1.79-.87 2.45-1.8 2.85h0c-1 .4-1.61.12-3.33-.73l-.19-.09a2.43 2.43 0 0 0-2.82.46L4.78 6.92a2.47 2.47 0 0 0-.46 2.82l.09.19c.86 1.72 1.13 2.36.73 3.33s-1 1.23-2.87 1.84l-.2.07A2.45 2.45 0 0 0 .4 17.49v3a2.45 2.45 0 0 0 1.67 2.32l.2.07c1.82.61 2.47.87 2.87 1.84s.13 1.61-.72 3.33l-.1.19a2.45 2.45 0 0 0 .46 2.82l2.14 2.13a2.43 2.43 0 0 0 2.82.46l.19-.09c1.72-.85 2.36-1.13 3.33-.73h.06c.92.4 1.18 1.06 1.78 2.84l.07.2a2.43 2.43 0 0 0 2.32 1.67h3a2.45 2.45 0 0 0 2.33-1.67l.06-.19c.61-1.82.87-2.47 1.86-2.88h0c.95-.4 1.59-.12 3.31.73l.19.09a2.45 2.45 0 0 0 2.83-.46l2.13-2.13a2.45 2.45 0 0 0 .46-2.82l-.09-.19c-.86-1.72-1.13-2.36-.73-3.33s1-1.23 2.87-1.84l.2-.07a2.45 2.45 0 0 0 1.67-2.32v-3a2.45 2.45 0 0 0-1.66-2.29zM35 20.4h-.1c-1.92.64-3.57 1.2-4.44 3.3s-.1 3.68.8 5.48l.05.1-2 2-.1-.05c-1.8-.9-3.36-1.67-5.46-.8s-2.68 2.57-3.32 4.48v.08h-2.84v-.1c-.64-1.91-1.2-3.56-3.31-4.44l-.24-.1h0c-2-.71-3.49 0-5.23.9l-.09.05-2-2v-.09c.86-1.73 1.68-3.37.8-5.49S5 21.08 3.1 20.44H3V17.6h.1c1.91-.64 3.57-1.19 4.44-3.3s.1-3.68-.8-5.49v-.09l2-2h.1c1.79.89 3.34 1.66 5.43.81h0c2.11-.88 2.67-2.53 3.31-4.44v-.1h2.82v.1c.64 1.91 1.2 3.56 3.31 4.44s3.67.09 5.49-.81h.08l2 2-.05.09c-.9 1.81-1.68 3.38-.8 5.49s2.53 2.66 4.44 3.3h.1z"/></svg>