<svg xmlns="http://www.w3.org/2000/svg" viewBox="0 0 38 38" fill="#e6e6e6" xmlns:v="https://vecta.io/nano"><path d="M19 6.75a7.15 7.15 0 0 0-7.14 7.14v.36.11q0 .39.09.78a7.17 7.17 0 0 0 1.58 3.35 7 7 0 0 0 3.69 2.3 6.83 6.83 0 0 0 3.42 0 7.09 7.09 0 0 0 3.66-2.2 7.16 7.16 0 0 0 1.7-3.26 6.66 6.66 0 0 0 .12-1v-.12-.3A7.15 7.15 0 0 0 19 6.75zm3.48 10a4.6 4.6 0 0 1-1.45 1.18 4.51 4.51 0 0 1-2 .5 4.46 4.46 0 0 1-2.13-.56 4.5 4.5 0 0 1-2.37-3.94 2.86 2.86 0 0 1 0-.42v-.12a4.35 4.35 0 0 1 .45-1.5 4.49 4.49 0 0 1 8.13.25 4.34 4.34 0 0 1 .32 1.23v.12a3.15 3.15 0 0 1 0 .44 4.42 4.42 0 0 1-.93 2.78zm9.76-3.34v-.25a13.25 13.25 0 0 0-26.47.1v.24.36a13.78 13.78 0 0 0 .46 3.37 25.62 25.62 0 0 0 1.43 4 41.28 41.28 0 0 0 2.21 4.22l1.42 2.28 2.57 3.64 3.71 4.57.5.56 1 1.06 1-1.06.45-.51 3.75-4.62 2.57-3.64 1.3-2.08a41.62 41.62 0 0 0 2.24-4.22 25.6 25.6 0 0 0 1.54-4.3 13.48 13.48 0 0 0 .44-3.27c-.1-.15-.11-.3-.12-.45zm-2.75 2a14.5 14.5 0 0 1-.61 2.44A28.17 28.17 0 0 1 27.1 22a56 56 0 0 1-4 6.36l-1.92 2.58-.84 1.06-.95 1.15-.39.47-.4-.47-.94-1.15-.93-1.17-1.88-2.53a55.29 55.29 0 0 1-4-6.54A27.74 27.74 0 0 1 9 17.65a16.07 16.07 0 0 1-.53-2.18 10.45 10.45 0 0 1-.15-1.61 10.31 10.31 0 0 1 .37-2.73 10.62 10.62 0 0 1 20.51-.08 10.52 10.52 0 0 1 .39 2.81 9.3 9.3 0 0 1-.1 1.53z"/></svg>