<svg id="Layer_1" data-name="Layer 1" xmlns="http://www.w3.org/2000/svg" viewBox="0 0 38 38"><defs><style>.cls-1{fill:#e6e6e6;}</style></defs><path class="cls-1" d="M19,6.75a7.15,7.15,0,0,0-7.14,7.14c0,.12,0,.24,0,.36v.11q0,.39.09.78a7.17,7.17,0,0,0,1.58,3.35,7,7,0,0,0,3.69,2.3,6.83,6.83,0,0,0,3.42,0,7.09,7.09,0,0,0,3.66-2.2A7.16,7.16,0,0,0,26,15.33a6.66,6.66,0,0,0,.12-1v-.12c0-.1,0-.2,0-.3A7.15,7.15,0,0,0,19,6.75Zm3.48,10a4.6,4.6,0,0,1-1.45,1.18,4.51,4.51,0,0,1-2,.5,4.46,4.46,0,0,1-2.13-.56,4.5,4.5,0,0,1-2.37-3.94,2.86,2.86,0,0,1,0-.42l0-.12a4.35,4.35,0,0,1,.45-1.5,4.49,4.49,0,0,1,8.13.25,4.34,4.34,0,0,1,.32,1.23l0,.12a3.15,3.15,0,0,1,0,.44A4.42,4.42,0,0,1,22.5,16.71Z"/><path class="cls-1" d="M32.24,13.41v-.25a13.25,13.25,0,0,0-26.47.1l0,.24c0,.12,0,.24,0,.36a13.78,13.78,0,0,0,.46,3.37,25.62,25.62,0,0,0,1.43,4,41.28,41.28,0,0,0,2.21,4.22c.45.76.93,1.52,1.42,2.28.79,1.2,1.66,2.42,2.57,3.64,1.62,2.15,3,3.79,3.71,4.57l.5.56,1,1.06,1-1.06.45-.51c.7-.79,2.12-2.45,3.75-4.62.91-1.22,1.78-2.44,2.57-3.64.44-.68.88-1.37,1.3-2.08a41.62,41.62,0,0,0,2.24-4.22,25.6,25.6,0,0,0,1.54-4.3,13.48,13.48,0,0,0,.44-3.27C32.26,13.71,32.25,13.56,32.24,13.41Zm-2.75,2a14.5,14.5,0,0,1-.61,2.44A28.17,28.17,0,0,1,27.1,22a56,56,0,0,1-4,6.36c-.61.86-1.26,1.73-1.92,2.58L20.34,32l-.95,1.15-.39.47-.4-.47L17.66,32l-.93-1.17c-.64-.83-1.27-1.68-1.88-2.53a55.29,55.29,0,0,1-4-6.54A27.74,27.74,0,0,1,9,17.65a16.07,16.07,0,0,1-.53-2.18,10.45,10.45,0,0,1-.15-1.61,10.31,10.31,0,0,1,.37-2.73,10.62,10.62,0,0,1,20.51-.08,10.52,10.52,0,0,1,.39,2.81A9.3,9.3,0,0,1,29.49,15.39Z"/></svg>