<svg xmlns="http://www.w3.org/2000/svg" viewBox="0 0 39 39" fill="#e6e6e6" xmlns:v="https://vecta.io/nano"><path d="M34.73 27.62a20.13 20.13 0 0 1-30.61 0h0a1.31 1.31 0 0 0-.91-.47H3.1a1.34 1.34 0 0 0-1 2.21 22.79 22.79 0 0 0 34.68 0 1.34 1.34 0 1 0-2-1.75zm-15.29 2.87a15.91 15.91 0 0 0 12.49-6 1.36 1.36 0 0 0 .29-1 1.32 1.32 0 0 0-.5-.9 1.35 1.35 0 0 0-1.89.21A13.29 13.29 0 0 1 9 22.76a1.31 1.31 0 0 0-1-.51 1.34 1.34 0 0 0-1.05 2.18 15.9 15.9 0 0 0 12.49 6.06zM36.4 6h-8.06v-.53-1.39-.38a2.45 2.45 0 0 0-2.46-2.44H13.07a2.44 2.44 0 0 0-2.41 2.11 1.26 1.26 0 0 0-.05.34V6h-8A2.46 2.46 0 0 0 .1 8.47v5.38a2.46 2.46 0 0 0 2.46 2.45h8l.07.49a2.45 2.45 0 0 0 2.43 2.14H16v3.77a2.53 2.53 0 0 0 2.53 2.53h2.13a2.53 2.53 0 0 0 2.53-2.53v-3.77h2.69a2.46 2.46 0 0 0 2.44-2.14l.06-.49h8a2.45 2.45 0 0 0 2.45-2.45V8.47A2.45 2.45 0 0 0 36.4 6zm-25.79 7.61H2.79V8.7h7.82zm10 5.88v3.14h-2v-3.7h2zm5-3.25H13.3v-10-1.73-.57h12.33zm10.53-2.63h-7.82V8.7h7.84z"/></svg>