<svg id="Layer_1" data-name="Layer 1" xmlns="http://www.w3.org/2000/svg" viewBox="0 0 44 44"><defs><style>.cls-1{fill:#e6e6e6;}</style></defs><path class="cls-1" d="M22.92,31.83a1.81,1.81,0,0,0,1.72-1.23l.05-.13c.29-.89.35-.94.54-1h0c.17-.07.25-.07,1.08.34l.13.06a1.83,1.83,0,0,0,2.1-.34l1.09-1.1A1.81,1.81,0,0,0,30,26.32l-.06-.13c-.4-.8-.41-.9-.34-1.09s.17-.25,1-.53l.13-.05A1.82,1.82,0,0,0,32,22.8V21.25a1.84,1.84,0,0,0-1.24-1.73l-.13,0c-.89-.3-.94-.35-1-.53s-.07-.26.34-1.1l.06-.12a1.83,1.83,0,0,0-.34-2.1l-1.09-1.09a1.83,1.83,0,0,0-2.1-.35l-.12.06c-.84.42-.92.42-1.1.34s-.24-.13-.53-1l-.05-.13a1.82,1.82,0,0,0-1.72-1.24H21.37a1.81,1.81,0,0,0-1.72,1.24l0,.13c-.3.88-.36.94-.53,1h0c-.17.06-.26.06-1.08-.35l-.12-.06a1.83,1.83,0,0,0-2.1.35l-1.09,1.09a1.84,1.84,0,0,0-.35,2.1l.07.12c.41.84.41.92.33,1.09s-.12.24-1,.54l-.13,0a1.83,1.83,0,0,0-1.24,1.73V22.8a1.82,1.82,0,0,0,1.24,1.72l.13.05c.89.29.94.35,1,.53s.06.3-.33,1.09l-.06.13a1.81,1.81,0,0,0,.34,2.09l1.09,1.1a1.83,1.83,0,0,0,2.1.34l.13-.06c.83-.41.91-.41,1.09-.34s.23.13.53,1l0,.14a1.82,1.82,0,0,0,1.73,1.23Zm-2.86-4.78a3.26,3.26,0,0,0-2.86.23L16.89,27a3.17,3.17,0,0,0-2-4.73V21.8a3.16,3.16,0,0,0,2-4.72l.31-.31a3.23,3.23,0,0,0,2.86.22l.05,0a3.3,3.3,0,0,0,1.82-2.16h.43A3.24,3.24,0,0,0,24.23,17a3.3,3.3,0,0,0,2.86-.22l.31.31a3.15,3.15,0,0,0,2,4.72v.44a3.16,3.16,0,0,0-2,4.73l-.31.31a3.23,3.23,0,0,0-2.86-.23,3.3,3.3,0,0,0-1.87,2.19h-.43A3.3,3.3,0,0,0,20.06,27.05Z"/><path class="cls-1" d="M16.69,37A15.75,15.75,0,0,1,18,6.75l1-.22a1.09,1.09,0,0,1,.4,0l-.8.8-.23.23a1.14,1.14,0,0,0-.31.58,1.29,1.29,0,0,0,.31,1.26,1.31,1.31,0,0,0,.92.38,1.33,1.33,0,0,0,.92-.38l1-1,2.43-2.42a1.32,1.32,0,0,0,0-1.84l-2.6-2.6L20.21.64a1.3,1.3,0,0,0-1.84,0,1.28,1.28,0,0,0,0,1.79l0,0,.52.52.57.57L19,3.64a18.64,18.64,0,0,0-2.87,36.25.21.21,0,0,0,.25-.09.2.2,0,0,0,0-.26,1.53,1.53,0,0,1,.23-2l.16-.14a.19.19,0,0,0,.07-.2A.25.25,0,0,0,16.69,37Z"/><path class="cls-1" d="M40.57,22A18.72,18.72,0,0,0,27.13,3.94l-.06.1a1.87,1.87,0,0,1-.29,2.44.23.23,0,0,0-.07.22.26.26,0,0,0,.17.19A15.67,15.67,0,0,1,37.59,23.56,16,16,0,0,1,25.2,37.26l-.72.17.89-.89.19-.19a1.33,1.33,0,0,0,.33-.63,1.3,1.3,0,0,0-.33-1.21,1.29,1.29,0,0,0-1.83,0l-1.14,1.14L20.29,38a1.23,1.23,0,0,0-.34.68,1.3,1.3,0,0,0,.33,1.15h0l2.53,2.53.91.91a1.3,1.3,0,0,0,1.84-1.83h0L25,40.85l-.56-.56A19,19,0,0,0,40.57,22Z"/></svg>