<svg xmlns="http://www.w3.org/2000/svg" width="2048" height="2048" viewBox="-256 -384 2048 2048" xmlns:v="https://vecta.io/nano"><path d="M384 1280h768V896H384v384zm896 0h128V384q0-14-10-38.5-10-24.5-20-34.5L1097 30q-10-10-34-20-24-10-39-10v416q0 40-28 68-28 28-68 28H352q-40 0-68-28-28-28-28-68V0H128v1280h128V864q0-40 28-68 28-28 68-28h832q40 0 68 28 28 28 28 68v416zM896 352V32q0-13-9.5-22.5Q877 0 864 0H672q-13 0-22.5 9.5Q640 19 640 32v320q0 13 9.5 22.5Q659 384 672 384h192q13 0 22.5-9.5Q896 365 896 352zm640 32v928q0 40-28 68-28 28-68 28H96q-40 0-68-28-28-28-28-68V-32q0-40 28-68 28-28 68-28h928q40 0 88 20 48 20 76 48l280 280q28 28 48 76 20 48 20 88z"/></svg>