<svg xmlns="http://www.w3.org/2000/svg" width="216" height="146" xmlns:v="https://vecta.io/nano"><path d="M108 78.215c2.824 0 5.27-1.031 7.332-3.096s3.098-4.508 3.098-7.332V15.643c0-2.825-1.033-5.269-3.098-7.332S110.825 5.214 108 5.214s-5.269 1.033-7.333 3.097-3.096 4.508-3.096 7.332v52.144c0 2.824 1.032 5.269 3.096 7.332s4.509 3.096 7.333 3.096zm56.014-27.946c-4.373-8.744-10.523-16.077-18.453-21.997-2.281-1.738-4.861-2.417-7.74-2.037s-5.16 1.738-6.844 4.073c-1.738 2.281-2.403 4.847-1.996 7.699s1.752 5.147 4.033 6.885c5.321 4.019 9.438 8.935 12.342 14.747s4.358 12.004 4.358 18.575c0 5.65-1.1 11.04-3.299 16.173s-5.174 9.573-8.922 13.321-8.187 6.721-13.32 8.921A40.63 40.63 0 0 1 108 119.93c-5.648 0-11.039-1.101-16.172-3.301s-9.573-5.174-13.321-8.921-6.721-8.188-8.921-13.321-3.3-10.523-3.3-16.173c0-6.571 1.453-12.763 4.359-18.575s7.02-10.727 12.343-14.747c2.281-1.739 3.625-4.033 4.033-6.885s-.258-5.418-1.996-7.699c-1.684-2.335-3.951-3.693-6.803-4.073s-5.446.299-7.781 2.037c-7.931 5.92-14.081 13.253-18.454 21.997s-6.559 18.06-6.559 27.945c0 8.474 1.657 16.566 4.97 24.279s7.767 14.366 13.362 19.961 12.248 10.049 19.961 13.36 15.806 4.972 24.279 4.972 16.566-1.658 24.279-4.972 14.367-7.766 19.961-13.36 10.047-12.248 13.361-19.961 4.969-15.806 4.969-24.279c0-9.885-2.183-19.2-6.556-27.945z"/></svg>