<svg xmlns="http://www.w3.org/2000/svg" width="2048" height="2048" viewBox="-256 -384 2048 2048" xmlns:v="https://vecta.io/nano"><path d="M1511 800q0 5-1 7-64 268-268 434.5Q1038 1408 764 1408q-146 0-282.5-55Q345 1298 238 1196l-129 129q-19 19-45 19-26 0-45-19-19-19-19-45V832q0-26 19-45 19-19 45-19h448q26 0 45 19 19 19 19 45 0 26-19 45l-137 137q71 66 161 102 90 36 187 36 134 0 250-65 116-65 186-179 11-17 53-117 8-23 30-23h192q13 0 22.5 9.5 9.5 9.5 9.5 22.5zm25-800v448q0 26-19 45-19 19-45 19h-448q-26 0-45-19-19-19-19-45 0-26 19-45l138-138Q969 128 768 128q-134 0-250 65-116 65-186 179-11 17-53 117-8 23-30 23H50q-13 0-22.5-9.5Q18 493 18 480v-7Q83 205 288 38.5 493-128 768-128q146 0 284 55.5Q1190-17 1297 84l130-129q19-19 45-19 26 0 45 19 19 19 19 45z"/></svg>